<svg width="1600" height="1200" viewBox="0 0 1600 1200" fill="none" xmlns="http://www.w3.org/2000/svg">
  <rect width="1600" height="1200" fill="#EFE5CF"/>
  <rect width="1600" height="1200" fill="url(#sky)"/>
  <ellipse cx="1260" cy="204" rx="104" ry="104" fill="#E4B65A"/>
  <ellipse cx="1190" cy="162" rx="208" ry="90" fill="#F8F0DE" opacity="0.84"/>

  <path d="M0 604C178 550 376 500 613 516C822 530 1041 610 1238 594C1398 580 1512 540 1600 504V1200H0V604Z" fill="#B8AF8C"/>
  <path d="M0 726C182 688 395 694 596 738C778 778 984 830 1190 804C1370 782 1494 734 1600 688V1200H0V726Z" fill="#72815F"/>
  <path d="M0 870C216 836 450 886 686 950C906 1010 1262 1036 1600 948V1200H0V870Z" fill="#445846"/>
  <path d="M0 1002C246 972 504 1028 820 1090C1056 1138 1332 1138 1600 1078V1200H0V1002Z" fill="#2C4038"/>

  <g opacity="0.95">
    <rect x="326" y="654" width="12" height="182" rx="6" fill="#24251C"/>
    <ellipse cx="368" cy="666" rx="106" ry="60" fill="#49614B"/>
    <ellipse cx="302" cy="692" rx="64" ry="40" fill="#5C7456"/>
  </g>

  <g opacity="0.93">
    <rect x="1064" y="690" width="9" height="152" rx="4.5" fill="#24251C"/>
    <ellipse cx="1094" cy="694" rx="72" ry="42" fill="#4B664D"/>
    <ellipse cx="1048" cy="712" rx="46" ry="30" fill="#617D5D"/>
  </g>

  <g opacity="0.78">
    <rect x="678" y="766" width="92" height="56" rx="12" fill="#F5E8CF"/>
    <rect x="694" y="782" width="58" height="8" rx="4" fill="#B68A4C"/>
    <rect x="710" y="798" width="36" height="8" rx="4" fill="#9D9A87"/>
  </g>

  <g opacity="0.9">
    <circle cx="742" cy="854" r="26" fill="#E2D0AB"/>
    <rect x="732" y="880" width="20" height="78" rx="10" fill="#6B755D"/>
    <rect x="712" y="920" width="18" height="58" rx="9" fill="#6B755D"/>
    <rect x="754" y="920" width="18" height="58" rx="9" fill="#6B755D"/>
    <rect x="708" y="894" width="68" height="18" rx="9" fill="#7B8667"/>
  </g>

  <g opacity="0.88">
    <circle cx="826" cy="878" r="24" fill="#DCC9A3"/>
    <rect x="817" y="902" width="18" height="72" rx="9" fill="#69745B"/>
    <rect x="798" y="940" width="16" height="54" rx="8" fill="#69745B"/>
    <rect x="838" y="940" width="16" height="54" rx="8" fill="#69745B"/>
    <rect x="793" y="918" width="66" height="16" rx="8" fill="#788261"/>
  </g>

  <g opacity="0.88">
    <circle cx="926" cy="850" r="25" fill="#DFCCAA"/>
    <rect x="916" y="876" width="20" height="80" rx="10" fill="#69765D"/>
    <rect x="896" y="918" width="18" height="60" rx="9" fill="#69765D"/>
    <rect x="938" y="918" width="18" height="60" rx="9" fill="#69765D"/>
    <rect x="892" y="892" width="68" height="18" rx="9" fill="#7A8467"/>
  </g>

  <g opacity="0.8">
    <rect x="856" y="810" width="20" height="20" rx="4" fill="#D2A15A"/>
    <rect x="882" y="796" width="20" height="20" rx="4" fill="#E7C560"/>
    <rect x="906" y="820" width="20" height="20" rx="4" fill="#C86B48"/>
  </g>

  <defs>
    <linearGradient id="sky" x1="800" y1="0" x2="800" y2="652" gradientUnits="userSpaceOnUse">
      <stop stop-color="#FBF5E8"/>
      <stop offset="1" stop-color="#E7DCC2"/>
    </linearGradient>
  </defs>
</svg>
