<svg width="512" height="512" viewBox="0 0 512 512" fill="none" xmlns="http://www.w3.org/2000/svg">
  <rect width="512" height="512" rx="128" fill="#F7F2E6"/>
  <rect x="30" y="30" width="452" height="452" rx="104" fill="url(#paint0_linear)"/>
  <circle cx="396" cy="124" r="54" fill="#E7BE61"/>
  <path d="M82 342C140 286 196 266 258 286C328 310 386 320 430 304V482H82V342Z" fill="#AAB876"/>
  <path d="M76 380C154 350 230 360 292 388C346 412 400 414 442 398V482H76V380Z" fill="#6D7B50"/>
  <path d="M86 420C158 404 222 428 282 446C344 466 392 468 446 452V482H86V420Z" fill="#31493A"/>
  <path d="M176 392C168 316 180 236 224 176" stroke="#52603A" stroke-width="12" stroke-linecap="round"/>
  <ellipse cx="242" cy="184" rx="42" ry="18" fill="#6A8152"/>
  <ellipse cx="210" cy="224" rx="42" ry="18" fill="#6A8152"/>
  <path d="M324 430C330 376 326 324 314 274" stroke="#2E5A45" stroke-width="10" stroke-linecap="round"/>
  <ellipse cx="338" cy="288" rx="20" ry="15" fill="#3B6EA8"/>
  <ellipse cx="308" cy="304" rx="20" ry="15" fill="#3B6EA8"/>
  <ellipse cx="338" cy="324" rx="20" ry="15" fill="#3B6EA8"/>
  <ellipse cx="308" cy="342" rx="20" ry="15" fill="#3B6EA8"/>
  <ellipse cx="338" cy="362" rx="20" ry="15" fill="#3B6EA8"/>
  <ellipse cx="324" cy="256" rx="18" ry="14" fill="#F5E6A8"/>
  <defs>
    <linearGradient id="paint0_linear" x1="256" y1="30" x2="256" y2="482" gradientUnits="userSpaceOnUse">
      <stop stop-color="#EFE5CF"/>
      <stop offset="1" stop-color="#E3D5B1"/>
    </linearGradient>
  </defs>
</svg>
